<svg width="30" height="30" viewBox="0 0 30 30" fill="none" xmlns="http://www.w3.org/2000/svg">
<g id="icons8-search 1">
<path id="Vector" d="M18.2377 19.9941L20.0055 18.2263L27.5186 25.7392L25.7509 27.507L18.2377 19.9941Z" fill="#616161"/>
<path id="Vector_2" d="M12.5 2.50018C9.84784 2.50018 7.3043 3.55375 5.42893 5.42912C3.55357 7.30448 2.5 9.84802 2.5 12.5002C2.5 15.1523 3.55357 17.6959 5.42893 19.5713C7.3043 21.4466 9.84784 22.5002 12.5 22.5002C15.1522 22.5002 17.6957 21.4466 19.5711 19.5713C21.4464 17.6959 22.5 15.1523 22.5 12.5002C22.5 9.84802 21.4464 7.30448 19.5711 5.42912C17.6957 3.55375 15.1522 2.50018 12.5 2.50018Z" fill="#616161"/>
<path id="Vector_3" d="M20.2849 22.0882L22.0526 20.3204L27.4886 25.7562L25.7209 27.524L20.2849 22.0882Z" fill="#37474F"/>
<path id="Vector_4" d="M12.5 4.37518C10.3451 4.37518 8.27849 5.23121 6.75476 6.75494C5.23102 8.27867 4.375 10.3453 4.375 12.5002C4.375 14.6551 5.23102 16.7217 6.75476 18.2454C8.27849 19.7692 10.3451 20.6252 12.5 20.6252C14.6549 20.6252 16.7215 19.7692 18.2452 18.2454C19.769 16.7217 20.625 14.6551 20.625 12.5002C20.625 10.3453 19.769 8.27867 18.2452 6.75494C16.7215 5.23121 14.6549 4.37518 12.5 4.37518Z" fill="#64B5F6"/>
<path id="Vector_5" d="M16.8125 8.87506C15.75 7.62506 14.1875 6.87506 12.5 6.87506C10.8125 6.87506 9.24997 7.62506 8.18747 8.87506C7.93747 9.12506 7.99997 9.56256 8.24997 9.75006C8.49997 10.0001 8.93747 9.93756 9.12497 9.68756C9.99997 8.68756 11.1875 8.12506 12.5 8.12506C13.8125 8.12506 15 8.68756 15.875 9.68756C16 9.81256 16.1875 9.93756 16.375 9.93756C16.5 9.93756 16.6875 9.87506 16.75 9.81256C17 9.56256 17 9.12506 16.8125 8.87506Z" fill="#BBDEFB"/>
</g>
</svg>
